<mxfile host="app.diagrams.net" modified="2023-05-28T17:36:06.248Z" agent="Mozilla/5.0 (Windows NT 10.0; Win64; x64) AppleWebKit/537.36 (KHTML, like Gecko) Chrome/113.0.0.0 Safari/537.36" etag="FCH6xMKMBnIyMA4YAbTH" version="21.3.4" type="device">
  <diagram name="Page-1" id="f5ssJr3iSAEM7DoDiQ9c">
    <mxGraphModel dx="1195" dy="685" grid="1" gridSize="10" guides="1" tooltips="1" connect="1" arrows="1" fold="1" page="1" pageScale="1" pageWidth="827" pageHeight="1169" math="0" shadow="0">
      <root>
        <mxCell id="0" />
        <mxCell id="1" parent="0" />
        <mxCell id="R6kY5GjrbPgdE8NMirtH-30" value="" style="ellipse;html=1;shape=startState;fillColor=#000000;strokeColor=#ff0000;" vertex="1" parent="1">
          <mxGeometry x="384" y="350" width="30" height="30" as="geometry" />
        </mxCell>
        <mxCell id="R6kY5GjrbPgdE8NMirtH-33" value="" style="edgeStyle=orthogonalEdgeStyle;html=1;verticalAlign=bottom;endArrow=open;endSize=8;strokeColor=#ff0000;rounded=0;" edge="1" parent="1">
          <mxGeometry relative="1" as="geometry">
            <mxPoint x="399" y="440" as="targetPoint" />
            <mxPoint x="399" y="380" as="sourcePoint" />
          </mxGeometry>
        </mxCell>
        <mxCell id="R6kY5GjrbPgdE8NMirtH-34" value="" style="shape=line;html=1;strokeWidth=6;strokeColor=#ff0000;" vertex="1" parent="1">
          <mxGeometry x="100" y="550" width="330" height="10" as="geometry" />
        </mxCell>
        <mxCell id="R6kY5GjrbPgdE8NMirtH-35" value="" style="edgeStyle=orthogonalEdgeStyle;html=1;verticalAlign=bottom;endArrow=open;endSize=8;strokeColor=#ff0000;rounded=0;entryX=0.5;entryY=0;entryDx=0;entryDy=0;" edge="1" parent="1" target="R6kY5GjrbPgdE8NMirtH-36">
          <mxGeometry relative="1" as="geometry">
            <mxPoint x="100" y="595" as="targetPoint" />
            <mxPoint x="126" y="560" as="sourcePoint" />
            <Array as="points">
              <mxPoint x="126" y="580" />
              <mxPoint x="126" y="580" />
            </Array>
          </mxGeometry>
        </mxCell>
        <mxCell id="R6kY5GjrbPgdE8NMirtH-36" value="Check&amp;nbsp; selected Module" style="rounded=1;whiteSpace=wrap;html=1;arcSize=40;fontColor=#000000;fillColor=#ffffc0;strokeColor=#ff0000;" vertex="1" parent="1">
          <mxGeometry x="66" y="636" width="120" height="40" as="geometry" />
        </mxCell>
        <mxCell id="R6kY5GjrbPgdE8NMirtH-37" value="" style="edgeStyle=orthogonalEdgeStyle;html=1;verticalAlign=bottom;endArrow=open;endSize=8;strokeColor=#ff0000;rounded=0;" edge="1" source="R6kY5GjrbPgdE8NMirtH-36" parent="1">
          <mxGeometry relative="1" as="geometry">
            <mxPoint x="126" y="736" as="targetPoint" />
          </mxGeometry>
        </mxCell>
        <mxCell id="R6kY5GjrbPgdE8NMirtH-39" value="Check CV" style="rounded=1;whiteSpace=wrap;html=1;arcSize=40;fontColor=#000000;fillColor=#ffffc0;strokeColor=#ff0000;" vertex="1" parent="1">
          <mxGeometry x="214" y="636" width="120" height="40" as="geometry" />
        </mxCell>
        <mxCell id="R6kY5GjrbPgdE8NMirtH-40" value="" style="edgeStyle=orthogonalEdgeStyle;html=1;verticalAlign=bottom;endArrow=open;endSize=8;strokeColor=#ff0000;rounded=0;" edge="1" source="R6kY5GjrbPgdE8NMirtH-39" parent="1">
          <mxGeometry relative="1" as="geometry">
            <mxPoint x="274" y="736" as="targetPoint" />
          </mxGeometry>
        </mxCell>
        <mxCell id="R6kY5GjrbPgdE8NMirtH-41" value="" style="rhombus;whiteSpace=wrap;html=1;fontColor=#000000;fillColor=#ffffc0;strokeColor=#ff0000;" vertex="1" parent="1">
          <mxGeometry x="360" y="440" width="80" height="40" as="geometry" />
        </mxCell>
        <mxCell id="R6kY5GjrbPgdE8NMirtH-42" value="[Trainee Teacher]" style="edgeStyle=orthogonalEdgeStyle;html=1;align=left;verticalAlign=bottom;endArrow=open;endSize=8;strokeColor=#ff0000;rounded=0;" edge="1" source="R6kY5GjrbPgdE8NMirtH-41" parent="1" target="R6kY5GjrbPgdE8NMirtH-49">
          <mxGeometry x="-1" y="10" relative="1" as="geometry">
            <mxPoint x="540" y="460" as="targetPoint" />
            <mxPoint as="offset" />
          </mxGeometry>
        </mxCell>
        <mxCell id="R6kY5GjrbPgdE8NMirtH-43" value="[Lecturer]" style="edgeStyle=orthogonalEdgeStyle;html=1;align=left;verticalAlign=top;endArrow=open;endSize=8;strokeColor=#ff0000;rounded=0;" edge="1" source="R6kY5GjrbPgdE8NMirtH-41" parent="1">
          <mxGeometry x="-0.5397" y="-30" relative="1" as="geometry">
            <mxPoint x="235" y="550" as="targetPoint" />
            <Array as="points">
              <mxPoint x="235" y="460" />
            </Array>
            <mxPoint as="offset" />
          </mxGeometry>
        </mxCell>
        <mxCell id="R6kY5GjrbPgdE8NMirtH-46" value="" style="shape=line;html=1;strokeWidth=6;strokeColor=#ff0000;" vertex="1" parent="1">
          <mxGeometry x="100" y="739" width="330" height="10" as="geometry" />
        </mxCell>
        <mxCell id="R6kY5GjrbPgdE8NMirtH-47" value="" style="edgeStyle=orthogonalEdgeStyle;html=1;verticalAlign=bottom;endArrow=open;endSize=8;strokeColor=#ff0000;rounded=0;entryX=0;entryY=0.5;entryDx=0;entryDy=0;exitX=0.513;exitY=0.954;exitDx=0;exitDy=0;exitPerimeter=0;" edge="1" source="R6kY5GjrbPgdE8NMirtH-46" parent="1" target="R6kY5GjrbPgdE8NMirtH-48">
          <mxGeometry relative="1" as="geometry">
            <mxPoint x="224" y="815" as="targetPoint" />
          </mxGeometry>
        </mxCell>
        <mxCell id="R6kY5GjrbPgdE8NMirtH-48" value="" style="ellipse;html=1;shape=endState;fillColor=#000000;strokeColor=#ff0000;" vertex="1" parent="1">
          <mxGeometry x="459" y="815" width="30" height="30" as="geometry" />
        </mxCell>
        <mxCell id="R6kY5GjrbPgdE8NMirtH-49" value="" style="shape=line;html=1;strokeWidth=6;strokeColor=#ff0000;" vertex="1" parent="1">
          <mxGeometry x="490" y="550" width="270" height="10" as="geometry" />
        </mxCell>
        <mxCell id="R6kY5GjrbPgdE8NMirtH-50" value="" style="edgeStyle=orthogonalEdgeStyle;html=1;verticalAlign=bottom;endArrow=open;endSize=8;strokeColor=#ff0000;rounded=0;" edge="1" parent="1">
          <mxGeometry relative="1" as="geometry">
            <mxPoint x="557" y="630" as="targetPoint" />
            <mxPoint x="557" y="560" as="sourcePoint" />
            <Array as="points">
              <mxPoint x="557" y="600" />
              <mxPoint x="557" y="600" />
            </Array>
          </mxGeometry>
        </mxCell>
        <mxCell id="R6kY5GjrbPgdE8NMirtH-51" value="Check&amp;nbsp; selected Course" style="rounded=1;whiteSpace=wrap;html=1;arcSize=40;fontColor=#000000;fillColor=#ffffc0;strokeColor=#ff0000;" vertex="1" parent="1">
          <mxGeometry x="497" y="633" width="120" height="40" as="geometry" />
        </mxCell>
        <mxCell id="R6kY5GjrbPgdE8NMirtH-52" value="" style="edgeStyle=orthogonalEdgeStyle;html=1;verticalAlign=bottom;endArrow=open;endSize=8;strokeColor=#ff0000;rounded=0;" edge="1" source="R6kY5GjrbPgdE8NMirtH-51" parent="1">
          <mxGeometry relative="1" as="geometry">
            <mxPoint x="557" y="732" as="targetPoint" />
          </mxGeometry>
        </mxCell>
        <mxCell id="R6kY5GjrbPgdE8NMirtH-53" value="Check Personal Details" style="rounded=1;whiteSpace=wrap;html=1;arcSize=40;fontColor=#000000;fillColor=#ffffc0;strokeColor=#ff0000;" vertex="1" parent="1">
          <mxGeometry x="643" y="632" width="120" height="40" as="geometry" />
        </mxCell>
        <mxCell id="R6kY5GjrbPgdE8NMirtH-54" value="" style="edgeStyle=orthogonalEdgeStyle;html=1;verticalAlign=bottom;endArrow=open;endSize=8;strokeColor=#ff0000;rounded=0;" edge="1" source="R6kY5GjrbPgdE8NMirtH-53" parent="1">
          <mxGeometry relative="1" as="geometry">
            <mxPoint x="703" y="732" as="targetPoint" />
          </mxGeometry>
        </mxCell>
        <mxCell id="R6kY5GjrbPgdE8NMirtH-55" value="" style="shape=line;html=1;strokeWidth=6;strokeColor=#ff0000;" vertex="1" parent="1">
          <mxGeometry x="529" y="735" width="200" height="10" as="geometry" />
        </mxCell>
        <mxCell id="R6kY5GjrbPgdE8NMirtH-56" value="" style="edgeStyle=orthogonalEdgeStyle;html=1;verticalAlign=bottom;endArrow=open;endSize=8;strokeColor=#ff0000;rounded=0;entryX=1;entryY=0.5;entryDx=0;entryDy=0;exitX=0.53;exitY=1.021;exitDx=0;exitDy=0;exitPerimeter=0;" edge="1" source="R6kY5GjrbPgdE8NMirtH-55" parent="1" target="R6kY5GjrbPgdE8NMirtH-48">
          <mxGeometry relative="1" as="geometry">
            <mxPoint x="629" y="815" as="targetPoint" />
          </mxGeometry>
        </mxCell>
        <mxCell id="R6kY5GjrbPgdE8NMirtH-57" value="Check Personal Details" style="rounded=1;whiteSpace=wrap;html=1;arcSize=40;fontColor=#000000;fillColor=#ffffc0;strokeColor=#ff0000;" vertex="1" parent="1">
          <mxGeometry x="360" y="635" width="120" height="40" as="geometry" />
        </mxCell>
        <mxCell id="R6kY5GjrbPgdE8NMirtH-58" value="" style="edgeStyle=orthogonalEdgeStyle;html=1;verticalAlign=bottom;endArrow=open;endSize=8;strokeColor=#ff0000;rounded=0;" edge="1" source="R6kY5GjrbPgdE8NMirtH-57" parent="1">
          <mxGeometry relative="1" as="geometry">
            <mxPoint x="420" y="735" as="targetPoint" />
          </mxGeometry>
        </mxCell>
        <mxCell id="R6kY5GjrbPgdE8NMirtH-59" value="" style="edgeStyle=orthogonalEdgeStyle;html=1;verticalAlign=bottom;endArrow=open;endSize=8;strokeColor=#ff0000;rounded=0;entryX=0.556;entryY=0.01;entryDx=0;entryDy=0;entryPerimeter=0;" edge="1" parent="1" target="R6kY5GjrbPgdE8NMirtH-39">
          <mxGeometry relative="1" as="geometry">
            <mxPoint x="270" y="610" as="targetPoint" />
            <mxPoint x="280" y="559" as="sourcePoint" />
            <Array as="points">
              <mxPoint x="281" y="559" />
              <mxPoint x="281" y="598" />
            </Array>
          </mxGeometry>
        </mxCell>
        <mxCell id="R6kY5GjrbPgdE8NMirtH-61" value="" style="edgeStyle=orthogonalEdgeStyle;html=1;verticalAlign=bottom;endArrow=open;endSize=8;strokeColor=#ff0000;rounded=0;exitX=0.963;exitY=0.713;exitDx=0;exitDy=0;exitPerimeter=0;entryX=0.473;entryY=-0.04;entryDx=0;entryDy=0;entryPerimeter=0;" edge="1" parent="1" source="R6kY5GjrbPgdE8NMirtH-34" target="R6kY5GjrbPgdE8NMirtH-57">
          <mxGeometry relative="1" as="geometry">
            <mxPoint x="416" y="630" as="targetPoint" />
            <mxPoint x="310" y="559" as="sourcePoint" />
            <Array as="points">
              <mxPoint x="416" y="560" />
              <mxPoint x="417" y="560" />
            </Array>
          </mxGeometry>
        </mxCell>
        <mxCell id="R6kY5GjrbPgdE8NMirtH-62" value="" style="edgeStyle=orthogonalEdgeStyle;html=1;verticalAlign=bottom;endArrow=open;endSize=8;strokeColor=#ff0000;rounded=0;exitX=0.791;exitY=0.808;exitDx=0;exitDy=0;exitPerimeter=0;entryX=0.511;entryY=-0.081;entryDx=0;entryDy=0;entryPerimeter=0;" edge="1" parent="1" source="R6kY5GjrbPgdE8NMirtH-49" target="R6kY5GjrbPgdE8NMirtH-53">
          <mxGeometry relative="1" as="geometry">
            <mxPoint x="704" y="620" as="targetPoint" />
            <mxPoint x="557" y="560" as="sourcePoint" />
            <Array as="points">
              <mxPoint x="704" y="590" />
              <mxPoint x="704" y="590" />
            </Array>
          </mxGeometry>
        </mxCell>
        <mxCell id="R6kY5GjrbPgdE8NMirtH-63" value="Check form details" style="shape=umlFrame;whiteSpace=wrap;html=1;pointerEvents=0;width=110;height=30;" vertex="1" parent="1">
          <mxGeometry x="40" y="340" width="750" height="520" as="geometry" />
        </mxCell>
      </root>
    </mxGraphModel>
  </diagram>
</mxfile>
